<svg width="970" height="107" viewBox="0 0 970 107" fill="none" xmlns="http://www.w3.org/2000/svg">
<path d="M13.104 72.852H23.868C25.896 72.852 27.794 72.644 29.562 72.228C31.33 71.812 32.864 71.188 34.164 70.356C35.464 69.472 36.478 68.38 37.206 67.08C37.986 65.78 38.376 64.22 38.376 62.4C38.376 58.76 37.206 56.056 34.866 54.288C32.526 52.52 29.094 51.636 24.57 51.636H13.104V72.852ZM13.104 46.956H24.414C25.766 46.956 27.092 46.8 28.392 46.488C29.744 46.124 30.94 45.552 31.98 44.772C33.072 43.992 33.956 43.004 34.632 41.808C35.308 40.56 35.646 39.052 35.646 37.284C35.646 36.712 35.516 35.906 35.256 34.866C35.048 33.826 34.528 32.786 33.696 31.746C32.916 30.706 31.746 29.822 30.186 29.094C28.626 28.314 26.52 27.924 23.868 27.924H13.104V46.956ZM7.488 22.776H23.946C26.234 22.776 28.444 23.01 30.576 23.478C32.708 23.946 34.606 24.726 36.27 25.818C37.934 26.91 39.26 28.34 40.248 30.108C41.236 31.876 41.73 34.06 41.73 36.66C41.73 39.676 40.872 42.276 39.156 44.46C37.492 46.592 35.1 48.022 31.98 48.75V48.906C35.88 49.218 38.922 50.596 41.106 53.04C43.342 55.432 44.46 58.656 44.46 62.712C44.46 63.596 44.226 64.896 43.758 66.612C43.342 68.328 42.432 70.044 41.028 71.76C39.624 73.424 37.596 74.88 34.944 76.128C32.292 77.376 28.756 78 24.336 78H7.488V22.776ZM119.565 50.388C119.565 47.216 119.045 44.2 118.005 41.34C116.965 38.428 115.457 35.88 113.481 33.696C111.557 31.512 109.191 29.77 106.383 28.47C103.575 27.17 100.403 26.52 96.8669 26.52C93.3309 26.52 90.1589 27.17 87.3509 28.47C84.5429 29.77 82.1509 31.512 80.1749 33.696C78.2509 35.88 76.7689 38.428 75.7289 41.34C74.6889 44.2 74.1689 47.216 74.1689 50.388C74.1689 53.56 74.6889 56.602 75.7289 59.514C76.7689 62.374 78.2509 64.896 80.1749 67.08C82.1509 69.264 84.5429 71.006 87.3509 72.306C90.1589 73.606 93.3309 74.256 96.8669 74.256C100.403 74.256 103.575 73.606 106.383 72.306C109.191 71.006 111.557 69.264 113.481 67.08C115.457 64.896 116.965 62.374 118.005 59.514C119.045 56.602 119.565 53.56 119.565 50.388ZM125.649 50.388C125.649 54.6 124.921 58.474 123.465 62.01C122.009 65.546 119.981 68.614 117.381 71.214C114.833 73.762 111.791 75.764 108.255 77.22C104.771 78.676 100.975 79.404 96.8669 79.404C92.7589 79.404 88.9369 78.676 85.4009 77.22C81.9169 75.764 78.8749 73.762 76.2749 71.214C73.7269 68.614 71.7249 65.546 70.2689 62.01C68.8129 58.474 68.0849 54.6 68.0849 50.388C68.0849 46.176 68.8129 42.302 70.2689 38.766C71.7249 35.23 73.7269 32.188 76.2749 29.64C78.8749 27.04 81.9169 25.012 85.4009 23.556C88.9369 22.1 92.7589 21.372 96.8669 21.372C100.975 21.372 104.771 22.1 108.255 23.556C111.791 25.012 114.833 27.04 117.381 29.64C119.981 32.188 122.009 35.23 123.465 38.766C124.921 42.302 125.649 46.176 125.649 50.388ZM192.026 69.576H192.182V22.776H197.798V78H190.778L157.862 30.732H157.706V78H152.09V22.776H159.11L192.026 69.576ZM232.845 72.852H243.765C247.977 72.852 251.617 72.228 254.685 70.98C257.805 69.68 260.379 67.99 262.407 65.91C264.487 63.778 266.021 61.386 267.009 58.734C267.997 56.03 268.491 53.248 268.491 50.388C268.491 47.528 267.997 44.772 267.009 42.12C266.021 39.416 264.487 37.024 262.407 34.944C260.379 32.812 257.805 31.122 254.685 29.874C251.617 28.574 247.977 27.924 243.765 27.924H232.845V72.852ZM227.229 22.776H245.559C248.991 22.776 252.423 23.348 255.855 24.492C259.339 25.636 262.459 27.378 265.215 29.718C268.023 32.006 270.285 34.892 272.001 38.376C273.717 41.808 274.575 45.812 274.575 50.388C274.575 55.016 273.717 59.046 272.001 62.478C270.285 65.91 268.023 68.796 265.215 71.136C262.459 73.424 259.339 75.14 255.855 76.284C252.423 77.428 248.991 78 245.559 78H227.229V22.776ZM306.649 72.852H336.211V78H301.033V22.776H335.275V27.924H306.649V46.722H333.403V51.87H306.649V72.852ZM380.185 78H374.569V54.21L353.899 22.776H360.919L377.377 48.828L393.835 22.776H400.855L380.185 54.21V78ZM428.094 72.852H457.656V78H422.478V22.776H456.72V27.924H428.094V46.722H454.848V51.87H428.094V72.852ZM520.142 66.69C520.662 69.03 521.624 70.876 523.028 72.228C524.432 73.58 526.382 74.256 528.878 74.256C530.906 74.256 532.544 73.866 533.792 73.086C535.092 72.254 536.08 71.214 536.756 69.966C537.484 68.666 537.978 67.21 538.238 65.598C538.498 63.934 538.628 62.244 538.628 60.528V22.776H544.244V62.868C544.244 64.74 543.984 66.664 543.464 68.64C542.996 70.564 542.138 72.332 540.89 73.944C539.694 75.504 538.108 76.804 536.132 77.844C534.156 78.884 531.686 79.404 528.722 79.404C524.926 79.404 521.754 78.442 519.206 76.518C516.658 74.542 515.072 71.656 514.448 67.86L520.142 66.69ZM579.299 72.852H608.861V78H573.683V22.776H607.925V27.924H579.299V46.722H606.053V51.87H579.299V72.852ZM647.141 70.044H647.297L661.181 22.776H667.889L681.773 70.044H681.929L695.033 22.776H701.273L684.971 78H678.419L664.535 30.732H664.379L650.495 78H643.943L627.641 22.776H633.881L647.141 70.044ZM729.613 72.852H759.175V78H723.997V22.776H758.239V27.924H729.613V46.722H756.367V51.87H729.613V72.852ZM791.06 72.852H816.8V78H785.444V22.776H791.06V72.852ZM845.27 47.19H855.254C857.75 47.19 859.856 46.93 861.572 46.41C863.34 45.89 864.744 45.214 865.784 44.382C866.824 43.498 867.578 42.484 868.046 41.34C868.514 40.144 868.748 38.87 868.748 37.518C868.748 36.218 868.514 34.996 868.046 33.852C867.578 32.656 866.824 31.616 865.784 30.732C864.744 29.848 863.34 29.172 861.572 28.704C859.856 28.184 857.75 27.924 855.254 27.924H845.27V47.19ZM845.27 78H839.654V22.776H856.658C862.274 22.776 866.694 23.998 869.918 26.442C873.194 28.886 874.832 32.578 874.832 37.518C874.832 41.366 873.61 44.616 871.166 47.268C868.774 49.868 865.29 51.376 860.714 51.792L876.626 78H869.762L854.63 52.338H845.27V78ZM917.816 78H912.2V54.21L891.53 22.776H898.55L915.008 48.828L931.466 22.776H938.486L917.816 54.21V78Z" fill="#121212"/>
<path d="M952.04 26.552C952.04 27.624 952.232 28.624 952.616 29.552C953.016 30.464 953.56 31.264 954.248 31.952C954.936 32.624 955.736 33.16 956.648 33.56C957.56 33.944 958.544 34.136 959.6 34.136C960.656 34.136 961.64 33.944 962.552 33.56C963.464 33.16 964.264 32.616 964.952 31.928C965.64 31.24 966.176 30.432 966.56 29.504C966.96 28.56 967.16 27.544 967.16 26.456C967.16 25.384 966.96 24.384 966.56 23.456C966.176 22.528 965.64 21.728 964.952 21.056C964.264 20.368 963.464 19.832 962.552 19.448C961.64 19.064 960.656 18.872 959.6 18.872C958.544 18.872 957.56 19.072 956.648 19.472C955.736 19.856 954.936 20.392 954.248 21.08C953.56 21.752 953.016 22.56 952.616 23.504C952.232 24.432 952.04 25.448 952.04 26.552ZM950.6 26.552C950.6 25.272 950.84 24.088 951.32 23C951.8 21.896 952.448 20.944 953.264 20.144C954.08 19.344 955.032 18.72 956.12 18.272C957.208 17.808 958.368 17.576 959.6 17.576C960.816 17.576 961.968 17.808 963.056 18.272C964.16 18.72 965.12 19.344 965.936 20.144C966.752 20.928 967.4 21.864 967.88 22.952C968.36 24.024 968.6 25.192 968.6 26.456C968.6 27.736 968.36 28.928 967.88 30.032C967.4 31.12 966.752 32.064 965.936 32.864C965.12 33.664 964.16 34.296 963.056 34.76C961.968 35.208 960.816 35.432 959.6 35.432C958.368 35.432 957.208 35.208 956.12 34.76C955.032 34.296 954.08 33.672 953.264 32.888C952.448 32.088 951.8 31.152 951.32 30.08C950.84 28.992 950.6 27.816 950.6 26.552ZM957.704 26H959.48C959.832 26 960.176 25.992 960.512 25.976C960.848 25.944 961.144 25.872 961.4 25.76C961.672 25.648 961.88 25.48 962.024 25.256C962.184 25.032 962.264 24.712 962.264 24.296C962.264 23.944 962.192 23.664 962.048 23.456C961.92 23.232 961.744 23.064 961.52 22.952C961.296 22.84 961.04 22.768 960.752 22.736C960.48 22.704 960.208 22.688 959.936 22.688H957.704V26ZM956.264 21.392H960.056C961.304 21.392 962.224 21.632 962.816 22.112C963.408 22.576 963.704 23.328 963.704 24.368C963.704 25.296 963.44 25.976 962.912 26.408C962.384 26.84 961.736 27.096 960.968 27.176L963.944 31.736H962.384L959.552 27.296H957.704V31.736H956.264V21.392Z" fill="black"/>
</svg>
