<svg xml:space="preserve" style="enable-background:new 0 0 2892 713;" viewBox="0 0 2892 713" y="0px" x="0px" xmlns:xlink="http://www.w3.org/1999/xlink" xmlns="http://www.w3.org/2000/svg" id="Logos" version="1.1">
<style type="text/css">
	.st0{fill:#43352F;}
	.st1{fill:#FFFFFF;}
</style>
<path d="M1578.3,179.5h105.26l60.56,304.97l71.38-304.97h105.98l70.66,304.97l60.56-304.97h105.26l-98.77,409.51
	h-125.45l-65.61-280.46l-65.61,280.46h-125.45L1578.3,179.5z M2328.84,179.5h105.98v47.58c23.79-39.65,57.68-61.28,105.26-61.28
	c38.21,0,79.31,25.23,98.77,65.61c26.68-41.1,63.45-65.61,118.96-65.61c85.08,0,134.1,56.24,134.1,148.52v274.69h-110.31V328.02
	c0-40.37-15.86-70.66-50.47-70.66c-42.54,0-65.61,36.05-65.61,94.45v237.2h-110.31V328.02c0-40.37-15.86-70.66-50.47-70.66
	c-41.82,0-65.61,37.49-65.61,94.45v237.2h-110.31V179.5z M1199.07,455.63h118.24c0,38.93,43.26,67.05,93.73,67.05
	c32.44,0,69.93-10.81,69.93-46.86c0-31-34.61-40.37-74.98-49.03c-104.54-22.35-191.06-36.77-191.06-135.54
	c0-84.35,84.35-125.45,174.48-125.45c85.8,0,169.43,37.49,183.13,122.57h-113.19c-5.77-26.68-36.77-45.42-74.26-45.42
	c-35.33,0-61.28,13.7-61.28,42.54c0,32.44,31.72,36.05,65.61,44.7c115.36,24.51,201.87,39.65,201.87,131.94
	c0,93.01-84.35,135.54-186.73,135.54C1292.07,597.67,1212.04,561.62,1199.07,455.63z M2179.59,589.02V179.5h106.7v409.51H2179.59z
	 M2160.85,72.8c0,39.65,32.44,72.1,72.1,72.1s72.82-32.44,72.1-72.1c0-39.65-32.44-72.1-72.1-72.1S2160.85,33.14,2160.85,72.8z
	 M820.55,446.26V179.5h109.59v247.3c0,49.03,12.98,83.63,64.17,83.63c45.42,0,71.38-43.98,71.38-97.33V179.5h108.87v409.51h-106.7
	v-49.75c-20.19,40.37-67.05,58.4-112.47,58.4C868.14,597.67,820.55,542.87,820.55,446.26z M491.79,382.46
	c0,73.54,27.4,128.33,98.77,128.33c69.21,0,97.33-49.75,97.33-128.33c0-74.98-33.16-129.05-97.33-129.05
	C527.84,253.4,491.79,307.47,491.79,382.46z M384.36,382.46c0-124.73,82.91-216.29,205.48-216.29
	c120.4,0,204.76,90.84,204.76,216.29c0,122.57-76.42,215.57-204.76,215.57C462.23,598.03,384.36,507.18,384.36,382.46z M98.5,624.34
	c28.16,2.61,65.4-12.57,44.94-66.54C0.08,179.5,0.08,179.5,0.08,179.5h129.05c0,0,40.37,157.89,55.52,217.01
	c9.37,36.05,18.75,69.21,24.51,91.56l79.31-308.58h116.8L267.56,587.57c-28.84,85.8-69.98,119.68-147.84,124.73L98.5,624.34z" class="st0"></path>
</svg>
