<svg xmlns="http://www.w3.org/2000/svg" width="200" height="14" viewBox="0 0 200 14" fill="none">
<g clip-path="url(#clip0_155_883)">
<g clip-path="url(#clip1_155_883)">
<path d="M200 12.25C199.675 12.2457 199.35 12.2244 199.028 12.2415C198.829 12.2521 198.703 12.1688 198.596 12.0278C197.684 10.8269 196.774 9.62608 195.861 8.42522C195.671 8.17522 195.489 7.91881 195.282 7.68377C195.201 7.59189 195.066 7.49146 194.953 7.48933C193.944 7.47437 192.936 7.48078 191.927 7.48292C191.895 7.48292 191.861 7.49146 191.803 7.50001C191.799 7.59189 191.793 7.68377 191.793 7.77351C191.793 8.5171 191.778 9.26069 191.799 10.0043C191.808 10.3504 191.735 10.6539 191.566 10.953C191.222 11.5598 190.895 12.1752 190.56 12.7885C190.541 12.8227 190.513 12.8526 190.449 12.9359V0.279925C190.526 0.275652 190.615 0.264968 190.707 0.264968C192.331 0.264968 193.955 0.239327 195.577 0.273515C196.611 0.294883 197.62 0.485054 198.479 1.13035C199.139 1.62608 199.609 2.25856 199.748 3.09189C199.887 3.92095 199.84 4.73078 199.419 5.48933C199.118 6.0342 198.697 6.46155 198.15 6.7436C197.709 6.9701 197.235 7.13249 196.754 7.33334C196.962 7.61112 197.188 7.92309 197.421 8.22864C197.885 8.83334 198.35 9.43804 198.821 10.0385C199.212 10.5385 199.607 11.0342 200.002 11.5321V12.25H200ZM191.812 1.57693V6.24787C193.222 6.22223 194.611 6.22223 195.998 6.15813C196.818 6.12181 197.526 5.79702 198.056 5.11326C198.69 4.29488 198.607 2.77565 197.549 2.10685C196.97 1.73933 196.329 1.5983 195.667 1.58121C194.472 1.55343 193.276 1.57266 192.081 1.57266H191.81L191.812 1.57693Z" fill="black"/>
<path d="M0 11.5833C0.510684 11.3269 1.01068 11.0492 1.53419 10.8269C1.73504 10.7415 1.98932 10.7757 2.21795 10.7607C3.05556 10.7051 3.57906 10.2201 3.92094 9.50215C4.14957 9.01924 4.20726 8.50001 4.20513 7.96582C4.19872 5.40172 4.20299 2.83762 4.20299 0.273516V-0.0469971H5.54915C5.55342 0.0427465 5.56197 0.13249 5.56197 0.222234C5.56197 2.90599 5.58974 5.58976 5.54915 8.27138C5.53205 9.42095 5.16667 10.4808 4.25641 11.2692C3.78419 11.6774 3.2265 11.9039 2.61325 12.0128C1.77564 12.1624 0.978633 12.0128 0.194444 11.7286C0.132479 11.7051 0.0641026 11.6966 0 11.6795C0 11.6453 0 11.6111 0 11.5769L0 11.5833Z" fill="black"/>
<path d="M100.417 7.15387V8.26071C100.417 8.83336 100.421 9.406 100.412 9.97865C100.412 10.1004 100.378 10.2329 100.32 10.3419C99.9615 11.0278 99.594 11.7094 99.2265 12.391C99.1987 12.4423 99.1581 12.4851 99.0854 12.5791V-0.0640797C99.1902 -0.0640797 99.2906 -0.0640797 99.3889 -0.0640797C101.073 -0.0640797 102.754 -0.0683532 104.438 -0.0640797C105.346 -0.0619429 106.212 0.143185 106.968 0.653869C107.882 1.27353 108.408 2.13678 108.444 3.27139C108.466 3.96797 108.361 4.62609 107.985 5.22438C107.451 6.07267 106.66 6.56199 105.709 6.82267C105.652 6.83763 105.596 6.859 105.538 6.87182C105.491 6.8825 105.442 6.88677 105.329 6.90387C106.6 8.55344 107.844 10.1646 109.128 11.8334C108.974 11.8419 108.878 11.8504 108.784 11.8504C108.408 11.8504 108.032 11.8376 107.656 11.8569C107.444 11.8675 107.316 11.7735 107.203 11.6282C106.615 10.8611 106.032 10.094 105.444 9.32481C104.925 8.64532 104.408 7.9637 103.882 7.28635C103.835 7.22652 103.75 7.15814 103.682 7.15601C102.607 7.14746 101.53 7.1496 100.41 7.1496L100.417 7.15387ZM100.427 5.82054C100.502 5.82908 100.56 5.83977 100.618 5.83977C101.891 5.83977 103.162 5.859 104.436 5.83336C105.034 5.82054 105.611 5.64532 106.111 5.30344C106.791 4.83763 107.12 4.19874 107.088 3.35045C107.06 2.61327 106.716 2.09404 106.132 1.70942C105.549 1.32481 104.874 1.21797 104.197 1.20301C103.036 1.17737 101.874 1.1966 100.712 1.1966C100.62 1.1966 100.528 1.20515 100.429 1.20942V5.82267L100.427 5.82054Z" fill="black"/>
<path d="M28.5237 2.22225C28.5237 4.80559 28.5237 7.35046 28.5194 9.89747C28.5194 10.0599 28.4788 10.2372 28.4083 10.3825C28.0493 11.1047 27.6711 11.8184 27.248 12.5193V-0.059799C27.6177 -0.059799 28.0002 -0.076893 28.3784 -0.0491153C28.4745 -0.042705 28.5707 0.100457 28.6476 0.196611C29.4382 1.20088 30.2224 2.21371 31.0173 3.21798C31.748 4.14106 32.4938 5.05345 33.2245 5.97866C33.9446 6.88892 34.6519 7.80772 35.3698 8.72225C35.5258 8.92097 35.6925 9.109 35.8869 9.33977V-0.0405683H37.1754V11.8483C36.8698 11.8483 36.5579 11.8547 36.2459 11.8419C36.1839 11.8398 36.1134 11.7693 36.0686 11.7137C35.5237 11.0321 34.9831 10.3462 34.4425 9.66242C33.9446 9.02994 33.451 8.39319 32.9532 7.76285C32.3442 6.99148 31.7267 6.22439 31.1177 5.45302C30.6177 4.82054 30.1263 4.18379 29.6284 3.55131C29.3079 3.14533 28.9852 2.74148 28.6626 2.33764C28.6305 2.29918 28.5857 2.26926 28.528 2.22012L28.5237 2.22225Z" fill="black"/>
<path d="M44.1455 12.5192V-0.0598095C44.5173 -0.0598095 44.8912 -0.106818 45.2417 -0.0405787C45.4105 -0.00852742 45.5515 0.224379 45.6818 0.384635C46.434 1.32481 47.1797 2.26925 47.9233 3.21583C48.5729 4.04062 49.2139 4.87395 49.8656 5.69874C50.3229 6.2778 50.7929 6.84617 51.2502 7.42523C51.6989 7.98934 52.1391 8.55771 52.5835 9.12395C52.6348 9.19019 52.6925 9.24788 52.8036 9.37181V-0.046989H54.0857V11.8504C53.7652 11.8504 53.4361 11.8611 53.1092 11.8419C53.0408 11.8376 52.9724 11.7308 52.9169 11.6603C52.2438 10.8098 51.5707 9.95728 50.8998 9.10472C50.0878 8.07267 49.2801 7.03634 48.4617 6.00857C47.7823 5.15173 47.0878 4.30557 46.4062 3.45087C46.0942 3.05985 45.7972 2.66028 45.4361 2.27352V2.53421C45.4361 4.9701 45.4382 7.406 45.4318 9.8419C45.4318 10.0128 45.3891 10.1987 45.3122 10.3526C44.9489 11.0855 44.5664 11.8077 44.1925 12.5342C44.1776 12.5299 44.1605 12.5278 44.1455 12.5235V12.5192Z" fill="black"/>
<path d="M20.1729 5.17736V6.48933H13.6537V10.5919H22.4336C22.4378 10.609 22.4421 10.6261 22.4464 10.6432C22.3866 10.6816 22.3289 10.7244 22.2648 10.7564C21.5896 11.0962 20.9122 11.438 20.2327 11.7714C20.1302 11.8227 20.0062 11.8504 19.8908 11.8504C17.4378 11.8547 14.987 11.8547 12.534 11.8526C12.4571 11.8526 12.3823 11.8462 12.2861 11.8419V-0.0427246H22.3566C22.2925 0.00428393 22.2541 0.0406087 22.2071 0.064113C21.5575 0.40172 20.9122 0.7436 20.2562 1.06625C20.1024 1.14104 19.9165 1.18591 19.7455 1.18591C17.8139 1.19445 15.8844 1.19018 13.9528 1.19018C13.8524 1.19018 13.7519 1.19018 13.643 1.19018V5.17309H20.1686L20.1729 5.17736Z" fill="black"/>
<path d="M175.923 12.2179V0.286316H185.216C185.222 0.301273 185.226 0.31623 185.233 0.331188C185.158 0.376059 185.088 0.427342 185.011 0.46794C184.333 0.807683 183.658 1.14956 182.974 1.47862C182.85 1.53845 182.699 1.57264 182.56 1.57264C180.91 1.57905 179.261 1.57691 177.611 1.57691C177.511 1.57691 177.41 1.57691 177.295 1.57691V5.56837C177.406 5.56837 177.506 5.56837 177.607 5.56837C179.581 5.56837 181.556 5.57264 183.53 5.56409C183.759 5.56409 183.85 5.61324 183.833 5.85896C183.812 6.18802 183.827 6.52136 183.827 6.87606H177.297V10.9273H185.318C185.323 10.9487 185.329 10.9701 185.333 10.9936C185.259 11.0385 185.188 11.0919 185.109 11.1303C184.432 11.4701 183.756 11.812 183.075 12.1432C182.972 12.1944 182.85 12.2329 182.737 12.2329C180.541 12.2372 178.344 12.2372 176.147 12.2372C176.081 12.2372 176.013 12.2286 175.921 12.2201L175.923 12.2179Z" fill="black"/>
<path d="M85.5469 1.19445V5.17736H92.0533V6.49146H85.5533V10.5855H93.5084L93.5255 10.641C93.4657 10.6795 93.4101 10.7222 93.3482 10.7543C92.6708 11.094 91.9956 11.4359 91.3161 11.7692C91.2136 11.8205 91.0896 11.8504 90.9764 11.8526C88.7884 11.8568 86.6003 11.8568 84.4123 11.8547C84.3375 11.8547 84.2649 11.844 84.1772 11.8355V-0.0405884H93.5191C93.3802 0.0406082 93.3076 0.0876168 93.2307 0.126078C92.5832 0.450865 91.9379 0.777788 91.2862 1.09403C91.1623 1.15386 91.0106 1.19018 90.8717 1.19018C89.205 1.19659 87.5384 1.19445 85.8717 1.19445H85.5448H85.5469Z" fill="black"/>
<path d="M159.515 0.277798H160.857V5.54703H167.686V-0.320492C167.701 -0.324766 167.718 -0.329039 167.733 -0.333313C167.904 -0.0256207 168.077 0.282072 168.246 0.589764C168.459 0.976516 168.681 1.36113 168.874 1.75857C168.961 1.94233 169.03 2.15814 169.03 2.36113C169.038 5.54062 169.036 8.71797 169.036 11.8975V12.218H167.688V6.89959H160.876C160.872 6.98934 160.863 7.07908 160.863 7.16882C160.863 8.10899 160.848 9.04917 160.87 9.98934C160.878 10.3547 160.793 10.671 160.615 10.9829C160.278 11.5727 159.961 12.1752 159.632 12.7735C159.611 12.8141 159.577 12.8483 159.513 12.9316V0.277798H159.515Z" fill="black"/>
<path d="M153.007 1.71369C152.74 2.05771 152.492 2.3889 152.222 2.70301C152.188 2.7436 152.017 2.71369 151.947 2.66668C151.616 2.4466 151.308 2.19446 150.975 1.97865C150.511 1.68164 149.99 1.54489 149.449 1.46369C148.881 1.37822 148.31 1.35471 147.759 1.52566C146.816 1.81839 146.312 2.23933 146.143 3.24147C146.045 3.8248 146.455 4.5342 147.026 4.83976C147.791 5.25001 148.62 5.43805 149.455 5.62181C150.184 5.78207 150.902 5.97865 151.569 6.32266C152.475 6.79061 153.103 7.48719 153.216 8.52779C153.351 9.76711 152.979 10.8184 151.945 11.5919C151.171 12.171 150.293 12.3697 149.351 12.3996C148.154 12.438 147.013 12.2244 145.975 11.6239C145.363 11.2692 144.801 10.8312 144.18 10.4017C144.528 10 144.823 9.66027 145.105 9.33548C145.543 9.67095 145.934 9.99574 146.348 10.2863C147.043 10.7735 147.821 11.0086 148.667 11.1004C149.22 11.1603 149.748 11.1239 150.274 10.9744C151.047 10.7543 151.665 10.3184 151.821 9.48933C151.97 8.70728 151.836 8.04489 151 7.59189C150.22 7.16668 149.363 7.01711 148.515 6.82266C147.554 6.60258 146.603 6.33121 145.819 5.70301C145.229 5.23078 144.889 4.61112 144.812 3.82907C144.748 3.19018 144.836 2.60044 145.116 2.0342C145.504 1.24574 146.163 0.756424 146.957 0.438048C147.586 0.185912 148.25 0.0833476 148.923 0.108989C150.284 0.160271 151.543 0.525655 152.607 1.42309C152.665 1.47224 152.731 1.5107 152.793 1.55557C152.855 1.60044 152.915 1.64531 153.011 1.71583L153.007 1.71369Z" fill="black"/>
<path d="M124.863 7.03418V8.74572C124.863 9.01922 124.829 9.297 124.87 9.56623C124.983 10.3141 124.665 10.9188 124.297 11.5214C124.071 11.891 123.887 12.2863 123.684 12.6709C123.645 12.7436 123.603 12.8141 123.517 12.8761V0.290588H132.75C132.754 0.303409 132.761 0.318366 132.765 0.331187C132.705 0.367511 132.645 0.405973 132.583 0.438024C131.9 0.782041 131.216 1.13033 130.526 1.46367C130.387 1.5299 130.22 1.5705 130.064 1.57264C128.44 1.58119 126.816 1.57691 125.192 1.57691H124.876V5.7799H131.269V7.03418H124.861H124.863Z" fill="black"/>
<path d="M77.2691 6.72223H70.8076V7.0171C70.8076 7.99146 70.8119 8.96582 70.8033 9.94018C70.8033 10.0855 70.7584 10.2436 70.6922 10.3739C70.376 10.9765 70.0448 11.5705 69.7178 12.1688C69.6495 12.2927 69.5725 12.4124 69.4614 12.5962V-0.0405884H78.7264C78.6516 0.0106937 78.6089 0.0448817 78.5597 0.068386C77.8738 0.412403 77.1901 0.75642 76.502 1.09189C76.3781 1.15172 76.2285 1.18804 76.0896 1.18804C74.4401 1.19445 72.7905 1.19232 71.1431 1.19232C71.0426 1.19232 70.9422 1.19232 70.8247 1.19232V5.39104H77.2713V6.72009L77.2691 6.72223Z" fill="black"/>
<path d="M61.0981 12.5086V-0.0384521H62.4593C62.4593 0.0555649 62.4593 0.153856 62.4593 0.252146C62.4593 3.34403 62.4507 6.43804 62.4699 9.52992C62.4721 9.97864 62.3567 10.3568 62.1473 10.7308C61.8439 11.2714 61.549 11.8184 61.2499 12.3633C61.2178 12.4209 61.1815 12.4744 61.1452 12.5299L61.0981 12.5107V12.5086Z" fill="black"/>
<path d="M137.545 0.279907H138.876V0.568369C138.876 3.797 138.876 7.0235 138.872 10.2521C138.872 10.3974 138.838 10.5598 138.769 10.688C138.44 11.3226 138.096 11.9466 137.756 12.5748C137.705 12.6709 137.639 12.7607 137.545 12.9102V0.279907Z" fill="black"/>
</g>
</g>
<defs>
<clipPath id="clip0_155_883">
<rect width="200" height="13.3336" fill="white"/>
</clipPath>
<clipPath id="clip1_155_883">
<rect width="200" height="13.2671" fill="white" transform="translate(0 -0.333313)"/>
</clipPath>
</defs>
</svg>