<svg width="6626" height="1028" viewBox="0 0 6626 1028" fill="none" xmlns="http://www.w3.org/2000/svg">
<g clip-path="url(#clip0_1401_56)">
<path d="M618.442 0H184.353V114.685H618.442V0Z" fill="#305E6B"/>
<path d="M401.328 213.57C294.889 213.57 192.81 255.86 117.546 331.137C42.2826 406.413 0 508.511 0 614.968C0 721.425 42.2826 823.522 117.546 898.799C192.81 974.075 294.889 1016.37 401.328 1016.37C543.895 1016.37 670.083 940.973 746.989 814.903L643.846 755.061C589.706 850.169 499.612 907.79 401.328 907.79C260.426 907.79 152.285 799.63 126.187 673.421H799.462C801.128 638.988 802.655 627.603 802.655 616.079C802.619 509.53 760.36 407.34 685.136 331.895C609.912 256.45 507.857 213.901 401.328 213.57ZM126.187 559.291C152.285 431.416 260.426 323.257 401.328 323.257C535.705 323.257 648.704 426.418 674.941 559.291H126.187Z" fill="#305E6B"/>
<path d="M1295.74 767.509L1038.51 246.428H899.272L1295.74 1027.98L1692.21 246.428H1552.97L1295.74 767.509Z" fill="#305E6B"/>
<path d="M2191.82 213.57C2085.38 213.57 1983.3 255.86 1908.04 331.137C1832.78 406.413 1790.5 508.511 1790.5 614.968C1790.5 721.425 1832.78 823.522 1908.04 898.799C1983.3 974.075 2085.38 1016.37 2191.82 1016.37C2334.25 1016.37 2460.44 940.973 2537.34 814.903L2434.2 755.061C2380.2 850.169 2290.11 907.79 2191.82 907.79C2050.92 907.79 1942.78 799.63 1916.54 673.421H2589.82C2591.48 638.988 2593.15 627.603 2593.15 616.079C2593.11 509.53 2550.86 407.34 2475.63 331.895C2400.41 256.45 2298.35 213.901 2191.82 213.57ZM1916.54 559.291C1942.78 431.416 2050.92 323.257 2191.82 323.257C2326.06 323.257 2439.06 426.418 2465.3 559.291H1916.54Z" fill="#305E6B"/>
<path d="M2935.48 330.01V246.703H2804.43V983.964H2935.48V538.276C2935.62 510.503 2941.26 483.033 2952.05 457.445C2962.84 431.856 2978.59 408.653 2998.38 389.17C3018.17 369.688 3041.61 354.309 3067.36 343.917C3093.11 333.526 3120.66 328.328 3148.43 328.621C3169.42 328.744 3190.31 331.496 3210.62 336.813V218.796C3197.07 216.425 3183.4 214.803 3169.67 213.936C3073.05 213.519 2987.81 251.285 2935.48 330.01Z" fill="#305E6B"/>
<path d="M3756.04 213.578C3710.01 212.682 3664.48 223.316 3623.6 244.51C3582.73 265.704 3547.8 296.786 3521.99 334.927V246.483H3390.95V983.745H3521.99V538.056C3522.1 510.195 3527.7 482.629 3538.46 456.931C3549.22 431.234 3564.94 407.907 3584.71 388.284C3604.48 368.661 3627.93 353.126 3653.71 342.565C3679.48 332.005 3707.09 326.626 3734.94 326.735C3847.94 326.735 3931.51 405.46 3931.51 516.813V983.745H4062.56V516.813C4062.42 321.876 3908.47 213.578 3756.04 213.578Z" fill="#305E6B"/>
<path d="M4955.17 366.299C4923.31 319.154 4880.35 280.567 4830.07 253.934C4779.79 227.301 4723.73 213.44 4666.84 213.571C4455.55 213.571 4275.37 394.068 4275.37 614.969C4275.37 835.87 4455.83 1016.37 4666.84 1016.37C4723.73 1016.5 4779.79 1002.64 4830.07 976.004C4880.35 949.371 4923.31 910.784 4955.17 863.638V983.183H5086.21V245.922H4955.17V366.299ZM4679.89 902.098C4529.27 902.098 4406.41 774.362 4406.41 615.385C4406.41 456.409 4529.27 328.673 4679.89 328.673C4830.51 328.673 4955.17 456.409 4955.17 615.385C4955.17 774.362 4830.65 901.82 4679.89 901.82V902.098Z" fill="#305E6B"/>
<path d="M5544.87 0H5413.83V244.921H5282.78V359.606H5413.83V983.848H5544.87V359.606H5675.92V244.921H5544.87V0Z" fill="#305E6B"/>
<path d="M6626 615.065C6626.03 535.637 6602.5 457.985 6558.4 391.931C6514.29 325.878 6451.59 274.39 6378.23 243.982C6304.87 213.573 6224.13 205.609 6146.24 221.098C6068.35 236.587 5996.81 274.833 5940.65 330.997C5884.5 387.162 5846.26 458.721 5830.77 536.625C5815.29 614.528 5823.25 695.275 5853.65 768.652C5884.05 842.029 5935.53 904.739 6001.58 948.849C6067.62 992.96 6145.26 1016.49 6224.67 1016.46C6367.1 1016.46 6493.29 941.071 6570.33 815L6467.05 755.02C6413.05 850.128 6322.95 907.748 6224.67 907.748C6083.77 907.748 5975.63 799.589 5949.39 673.38H6622.67C6624.33 637.974 6626 626.589 6626 615.065ZM5949.39 559.528C5975.63 431.653 6083.77 323.493 6224.67 323.493C6358.91 323.493 6472.05 426.654 6498.28 559.528H5949.39Z" fill="#305E6B"/>
</g>
<defs>
<clipPath id="clip0_1401_56">
<rect width="6626" height="1028" fill="white"/>
</clipPath>
</defs>
</svg>
