<svg xmlns="http://www.w3.org/2000/svg" xmlns:xlink="http://www.w3.org/1999/xlink" width="119.189" height="40.756" viewBox="0 0 119.189 40.756">
  <title>Home page link - Malibu C logo</title>
  <defs>
    <clipPath id="logo-cp1">
      <path id="Path_37" data-name="Path 37" d="M0-119.073H119.111V-159.64H0Z" transform="translate(0 159.64)" fill="currentColor"></path>
    </clipPath>
    <clipPath id="logo-cp2">
      <path id="Path_41" data-name="Path 41" d="M0-119.275H119.189v-40.756H0Z" transform="translate(0 160.031)" fill="currentColor"></path>
    </clipPath>
  </defs>
  <g id="Group_8" data-name="Group 8" transform="translate(0 160.031)">
    <g id="Group_8-2" data-name="Group 8" transform="translate(0 -159.862)" clip-path="url(#logo-cp1)">
      <path id="Path_36" data-name="Path 36" d="M16.493-36.58H14.5v-9.8h-.05L8.222-38.565,2.039-46.377h-.05v9.8H0V-48.561H2.486l5.751,7.24,5.777-7.24h2.478V-36.58" transform="translate(0 76.796)" fill="currentColor"></path>
    </g>
    <g id="Group_9" data-name="Group 9" transform="translate(0 -160.031)" clip-path="url(#logo-cp2)">
      <path id="Path_38" data-name="Path 38" d="M83.79-41.033,80.732-46.85l-3.1,5.816Zm4.526,4.477H86.139l-1.384-2.686H76.67l-1.383,2.686H73.111l6.35-12h2.5l6.351,12" transform="translate(-54.491 76.95)" fill="currentColor"></path>
      <path id="Path_39" data-name="Path 39" d="M152.466-36.557H141.208v-12h1.99v10.213h9.268v1.791" transform="translate(-105.245 76.95)" fill="currentColor"></path>
      <path id="Path_40" data-name="Path 40" d="M193.681-36.557h1.989v-12h-1.989Z" transform="translate(-144.355 76.95)" fill="currentColor"></path>
    </g>
    <g id="Group_10" data-name="Group 10" transform="translate(0 -159.862)" clip-path="url(#logo-cp1)">
      <path id="Path_42" data-name="Path 42" d="M223.639-38.367q2.486,0,2.486-1.638,0-1.754-2.172-1.754h-7.907v3.392Zm.149-5.18a2.059,2.059,0,0,0,1.384-.474,1.467,1.467,0,0,0,.555-1.156,1.465,1.465,0,0,0-.5-1.164,2,2,0,0,0-1.359-.433h-7.824v3.227Zm2.321.795a2.882,2.882,0,0,1,2.055,3.028q0,3.144-4.542,3.144h-9.564V-48.561h9.7a4.268,4.268,0,0,1,2.867.894,2.978,2.978,0,0,1,1.044,2.383,2.786,2.786,0,0,1-1.558,2.532" transform="translate(-159.557 76.796)" fill="currentColor"></path>
      <path id="Path_43" data-name="Path 43" d="M292.3-40.452a3.474,3.474,0,0,1-1.823,3.029,8.978,8.978,0,0,1-4.956,1.208,9.15,9.15,0,0,1-4.989-1.208,3.5,3.5,0,0,1-1.823-3.029v-8.109h1.989v7.629a2.371,2.371,0,0,0,1.235,2.151,7.027,7.027,0,0,0,3.589.745,6.932,6.932,0,0,0,3.572-.745,2.377,2.377,0,0,0,1.218-2.151v-7.629H292.3v8.109" transform="translate(-207.744 76.796)" fill="currentColor"></path>
    </g>
    <g id="Group_11" data-name="Group 11" transform="translate(0 -160.031)" clip-path="url(#logo-cp2)">
      <path id="Path_45" data-name="Path 45" d="M408.416-46.941l-1.807.647a6.668,6.668,0,0,0-5.107-1.94,6.213,6.213,0,0,0-4.054,1.276,4.011,4.011,0,0,0-1.567,3.25,4.023,4.023,0,0,0,1.55,3.291,6.472,6.472,0,0,0,4.187,1.252,6.482,6.482,0,0,0,5.007-1.973l1.708.945a7.717,7.717,0,0,1-2.926,2.18,10.251,10.251,0,0,1-3.9.671,8.521,8.521,0,0,1-5.289-1.592,5.715,5.715,0,0,1-2.4-4.775,5.688,5.688,0,0,1,2.437-4.742,8.452,8.452,0,0,1,5.256-1.608,8.209,8.209,0,0,1,6.914,3.117" transform="translate(-293.515 78.066)" fill="currentColor"></path>
    </g>
    <g id="Group_12" data-name="Group 12" transform="translate(0 -159.862)" clip-path="url(#logo-cp1)">
      <path id="Path_47" data-name="Path 47" d="M457.622-50.151h.156c.182,0,.268.073.294.227a1.208,1.208,0,0,0,.112.363h.345a1.379,1.379,0,0,1-.1-.363c-.043-.2-.112-.318-.25-.363V-50.3a.378.378,0,0,0,.293-.354.381.381,0,0,0-.146-.318.727.727,0,0,0-.484-.117,3.66,3.66,0,0,0-.544.045v1.489h.327Zm.009-.672a.755.755,0,0,1,.182-.018c.208,0,.3.091.3.228,0,.155-.147.218-.329.218h-.156Zm.225-1a1.464,1.464,0,0,0-1.468,1.489,1.47,1.47,0,0,0,1.46,1.5,1.463,1.463,0,0,0,1.451-1.5,1.454,1.454,0,0,0-1.442-1.489m-.017.3a1.136,1.136,0,0,1,1.1,1.2,1.117,1.117,0,0,1-1.081,1.181,1.135,1.135,0,0,1-1.106-1.19,1.138,1.138,0,0,1,1.089-1.19" transform="translate(-340.187 79.227)" fill="currentColor"></path>
      <path id="Path_48" data-name="Path 48" d="M111.412-145.256c-2.594-5.471-8.355-9.045-14.336-11.226-15.027-5.479-33.019-3.2-47.656,2.036a77.2,77.2,0,0,0-31.685,20.735l4.217,5.308C30-139.61,42.143-147.685,56.152-152.34c11.109-3.692,24.58-3.77,35.39.746,12.917,5.4,13.519,17.321,8.387,27.8-1.179,2.408,8.447,1.441,9.746-1.212,3.122-6.378,4.888-13.608,1.737-20.253" transform="translate(-13.219 159.64)" fill="currentColor"></path>
    </g>
  </g>
</svg>