<svg xmlns="http://www.w3.org/2000/svg" width="181" height="56" viewBox="0 0 181 56" fill="none">
<path d="M32.2333 11.4202C32.6078 11.3453 33.3193 11.0082 33.3193 9.99706C33.3193 8.83612 32.458 8.16202 31.0349 8.16202H28.4883V14.9404H31.3345C32.8325 14.9404 33.6564 14.2663 33.6564 13.1054C33.6564 11.9445 32.7201 11.4951 32.2707 11.4202M29.7616 9.17316H30.7727C31.6341 9.17316 32.0086 9.51021 32.0086 10.1094C32.0086 10.7086 31.5966 11.0082 30.8476 11.0082H29.7241V9.17316H29.7616ZM31.1098 13.9293H29.7616V11.907H30.9974C31.7464 11.907 32.3082 12.2441 32.3082 12.9556C32.3082 13.6671 31.7839 13.9293 31.0723 13.9293" fill="#034872"></path>
<path d="M38.0005 8.16202H36.6149L34.1807 14.9404H35.5289L36.0532 13.405H38.6372L39.1615 14.9404H40.4722L38.038 8.16202H38.0005ZM36.3528 12.4313L37.0643 10.2967C37.1392 10.072 37.2141 9.80981 37.2516 9.54766C37.3265 9.80981 37.4014 10.1094 37.4388 10.2967L38.1878 12.4313H36.2779H36.3528Z" fill="#034872"></path>
<path d="M46.8019 13.9667C46.8019 13.9667 46.727 13.9667 46.6147 13.9667C45.7159 13.9667 45.7159 12.6934 44.9294 12.2815C45.8282 11.9819 46.3525 11.3078 46.3525 10.3715C46.3525 8.8361 45.4163 8.162 43.731 8.162H41.5215V14.9404H42.7948V12.5436H43.1693C44.7796 12.5436 44.2179 15.0153 46.2027 15.0153C48.1876 15.0153 46.8768 14.9404 46.8768 14.9404L46.8019 13.9667ZM43.5063 11.6074H42.7573V9.2106H43.6187C44.5175 9.2106 45.0418 9.62255 45.0418 10.409C45.0418 11.1954 44.4051 11.6074 43.5063 11.6074Z" fill="#034872"></path>
<path d="M49.2733 8.16202H48V14.9404H49.2733V8.16202Z" fill="#034872"></path>
<path d="M54.1046 8.162H52.7189L50.2847 14.9404H51.6329L52.1572 13.405H54.7412L55.2655 14.9404H56.5762L54.142 8.162H54.1046ZM52.4942 12.4313L53.2058 10.2966C53.2807 10.0719 53.3556 9.8098 53.393 9.54765C53.4679 9.8098 53.5428 10.1094 53.5803 10.2966L54.3293 12.4313H52.4193H52.4942Z" fill="#034872"></path>
<path d="M58.4107 9.24807H56.3135V8.16202H61.7812V9.24807H59.684V14.9404H58.4107V9.24807Z" fill="#034872"></path>
<path d="M68.1852 13.9667C68.1852 13.9667 68.1103 13.9667 67.998 13.9667C67.0992 13.9667 67.0992 12.6935 66.3127 12.2815C67.2115 11.9819 67.7358 11.3078 67.7358 10.3716C67.7358 8.83612 66.7996 8.16202 65.1143 8.16202H62.9048V14.9404H64.1781V12.5437H64.5526C66.1629 12.5437 65.6012 15.0153 67.586 15.0153C69.5709 15.0153 68.2601 14.9404 68.2601 14.9404L68.1852 13.9667ZM64.9271 11.6074H64.1781V9.21062H65.0394C65.9382 9.21062 66.4625 9.62256 66.4625 10.409C66.4625 11.1955 65.8259 11.6074 64.9271 11.6074Z" fill="#034872"></path>
<path d="M70.6571 8.16203H69.3838V14.9405H70.6571V8.16203Z" fill="#034872"></path>
<path d="M77.9223 10.5588L76.7239 10.7461C76.7239 10.1094 76.3119 9.24807 75.2633 9.24807C74.2147 9.24807 73.3908 10.1094 73.3908 11.57C73.3908 13.0305 74.3645 13.8918 75.4131 13.8918C76.4617 13.8918 76.8737 13.3301 77.2107 12.9182L77.9972 13.7046C77.735 14.0791 76.9111 15.0153 75.4131 15.0153C73.9151 15.0153 72.0801 13.7046 72.0801 11.57C72.0801 9.43532 73.3908 8.12457 75.2259 8.12457C77.0609 8.12457 77.9223 9.54767 77.9223 10.5588Z" fill="#034872"></path>
<path d="M124.135 25.4639C123.948 25.1268 123.724 24.8273 123.499 24.4902C120.615 20.558 115.522 18.4982 110.766 18.5731C106.422 18.6106 102.04 20.2958 99.119 23.554C97.0592 25.8384 95.7485 28.7969 95.4115 31.8678C94.9246 35.9873 96.1604 40.3315 98.8943 43.4773C102.415 47.5593 107.92 49.282 113.2 48.6454C115.522 48.3458 117.769 47.5593 119.716 46.286C124.323 43.29 126.907 38.0845 126.495 32.6168C126.308 30.1077 125.521 27.5985 124.173 25.4639M114.998 39.4327C112.189 41.3801 108.032 41.1554 105.635 38.5339C104.062 36.8112 103.576 34.714 103.875 32.4296C104.549 27.973 109.605 25.2392 113.762 27.0742C117.806 28.9093 119.155 34.6391 116.383 38.0845C115.971 38.5714 115.522 39.0207 114.998 39.3578" fill="#034872"></path>
<path d="M88.0338 7.22577C85.225 7.22577 82.978 9.47276 82.978 12.2815C82.978 15.0902 85.225 17.3372 88.0338 17.3372C90.8425 17.3372 93.0895 15.0902 93.0895 12.2815C93.0895 9.47276 90.8425 7.22577 88.0338 7.22577Z" fill="#034872"></path>
<path d="M174.58 42.1665C174.356 39.6948 171.247 38.6462 169.524 40.4438C169.15 40.8183 168.551 40.8183 168.176 40.4438C166.454 38.6462 163.345 39.6574 163.121 42.1665C163.046 42.8406 163.195 43.5147 163.42 43.9266C164.319 45.537 167.165 47.5967 168.326 48.3832C168.626 48.6079 169.075 48.6079 169.375 48.3832C170.536 47.5967 173.382 45.537 174.281 43.9266C174.505 43.5147 174.655 42.878 174.58 42.1665Z" fill="#F36B24"></path>
<path d="M157.916 21.1572C158.065 20.8201 158.29 20.5205 158.515 20.2958C158.777 20.0711 159.077 19.8839 159.414 19.7341C159.751 19.6217 160.088 19.5468 160.462 19.5468C160.837 19.5468 161.174 19.6217 161.511 19.7341C161.848 19.8464 162.147 20.0337 162.41 20.2958C162.672 20.558 162.859 20.8201 163.009 21.1572C163.159 21.4942 163.233 21.8687 163.233 22.2806C163.233 22.6926 163.159 23.0671 163.009 23.4041C162.859 23.7412 162.634 24.0408 162.41 24.2655C162.147 24.4902 161.848 24.6774 161.511 24.8272C161.174 24.9396 160.837 25.0145 160.462 25.0145C160.088 25.0145 159.751 24.9396 159.414 24.8272C159.077 24.7149 158.777 24.5276 158.515 24.2655C158.253 24.0408 158.065 23.7412 157.916 23.4041C157.766 23.0671 157.691 22.6926 157.691 22.2806C157.691 21.8687 157.766 21.4942 157.916 21.1572ZM158.59 23.142C158.702 23.4041 158.852 23.6288 159.039 23.8161C159.226 24.0033 159.451 24.1531 159.676 24.2655C159.938 24.3778 160.2 24.4153 160.5 24.4153C160.799 24.4153 161.061 24.3778 161.286 24.2655C161.548 24.1531 161.773 24.0033 161.923 23.8161C162.11 23.6288 162.26 23.4041 162.372 23.142C162.485 22.8798 162.522 22.5802 162.522 22.2806C162.522 21.9811 162.485 21.6815 162.372 21.4193C162.26 21.1572 162.11 20.9325 161.923 20.7452C161.735 20.558 161.511 20.4082 161.286 20.2958C161.024 20.1835 160.762 20.146 160.5 20.146C160.238 20.146 159.938 20.1835 159.676 20.2958C159.414 20.4082 159.189 20.558 159.039 20.7452C158.852 20.9325 158.702 21.1572 158.59 21.4193C158.477 21.6815 158.44 21.9811 158.44 22.2806C158.44 22.5802 158.477 22.8798 158.59 23.142ZM160.537 20.7452C160.912 20.7452 161.211 20.8201 161.436 20.9325C161.661 21.0823 161.735 21.307 161.735 21.644C161.735 21.9811 161.735 21.9062 161.661 22.0185C161.623 22.1309 161.548 22.2057 161.473 22.2806C161.398 22.3555 161.324 22.393 161.211 22.4305C161.099 22.4305 161.024 22.4679 160.912 22.5054L161.735 23.8535H161.099L160.35 22.5428H159.975V23.8535H159.376V20.7827H160.537V20.7452ZM160.537 22.0185C160.724 22.0185 160.874 22.0185 160.949 21.9436C161.024 21.8687 161.099 21.7938 161.099 21.6066C161.099 21.4193 161.099 21.4568 161.024 21.4193C160.987 21.3819 160.949 21.3444 160.874 21.307C160.799 21.307 160.762 21.2695 160.687 21.2695C160.612 21.2695 160.537 21.2695 160.462 21.2695H159.938V22.056H160.462L160.537 22.0185Z" fill="#034872"></path>
<path d="M20.6615 14.7157C18.7141 14.7157 17.3659 15.7643 17.3659 17.9364V19.3221H22.3093V26.4001H17.3659V48.1959H8.60267V26.4001H5.41943V19.3221H8.60267V16.5508C8.60267 10.1094 12.9094 7.63773 18.3396 7.63773C23.0323 7.67742 22.6089 8.04967 22.6089 8.04967V14.9779C22.4237 14.9264 20.8525 14.7157 20.6615 14.7157Z" fill="#034872"></path>
<path d="M52.831 19.4344V47.7091H44.929V45.3872C42.8319 47.4095 40.0606 48.3457 36.8773 48.3457C28.938 48.3457 25.3428 42.9904 25.3428 34.7514V19.397H34.2558V34.3395C34.2558 38.047 36.2032 39.957 38.9371 39.957C41.6709 39.957 43.9554 37.7849 43.9554 33.6279V19.3595H52.8684L52.831 19.4344Z" fill="#034872"></path>
<path d="M92.2655 19.397H84.064V48.2334H92.2655V19.397Z" fill="#034872"></path>
<path d="M157.878 39.3203C157.578 38.8709 157.466 38.1968 157.466 37.6351C157.466 36.8486 157.466 30.2949 157.466 30.1451C157.466 28.6845 157.316 27.2615 156.904 25.8758C155.818 22.3181 153.122 19.734 149.489 18.9101C145.444 17.9739 140.801 18.985 137.805 21.9436C137.692 22.0559 137.58 22.1683 137.468 22.2806V19.397H129.266V48.2334H137.468V32.1674C137.468 29.2463 139.79 26.9993 142.598 26.6248C145.257 26.2503 147.991 27.5611 148.815 30.22C149.077 31.0439 149.115 31.9052 149.152 32.7291C149.189 35.051 149.077 37.3729 149.152 39.6948C149.264 41.7171 149.452 43.6645 150.762 45.3497C153.009 48.1959 156.754 48.3832 160.087 48.2334H160.312V40.4063C158.777 40.2565 158.215 39.9195 157.84 39.3578" fill="#034872"></path>
<path d="M81.2927 37.1482C81.068 34.4518 79.7198 32.5044 77.2481 31.3809C75.6003 30.6319 73.8027 30.2574 72.0426 30.0327C70.0952 29.7706 68.1852 29.5084 66.2378 29.2088C65.7136 29.1339 65.1144 29.0216 64.7399 28.6096C64.2905 28.1603 64.4028 27.4862 64.7399 26.9993C65.3016 26.2129 66.5 25.9133 67.4362 25.8384C69.1215 25.6511 71.331 25.8384 72.0051 27.7108C72.1549 28.0853 72.1924 28.4598 72.1924 28.4598H80.4688C80.4313 28.0853 80.3939 27.6734 80.319 27.2989C79.7947 24.5276 78.3342 22.0185 75.9374 20.4456C72.7916 18.3858 68.5223 18.1611 64.8897 18.7978C62.5678 19.2097 60.2459 20.2209 58.5606 21.9436C56.6881 23.891 55.9017 26.8121 56.1264 29.5084C56.3136 31.3435 57.1375 33.1411 58.5606 34.3395C60.2084 35.7626 62.6052 36.3243 64.7399 36.6614C66.9868 37.0359 69.3087 37.1482 71.5183 37.6725C72.5294 37.8972 73.3908 38.7211 72.9414 39.8446C72.6043 40.7808 71.5183 41.0805 70.6195 41.2677C69.3087 41.5299 67.9605 41.5298 66.6498 41.1553C65.3765 40.8183 64.5526 39.9944 64.1032 38.7586C64.1032 38.7211 64.1032 38.6837 64.0658 38.6462C63.9909 38.3466 63.9534 38.0845 63.9534 38.0845H55.4897C55.4897 38.0845 55.7144 39.8821 56.3511 41.4175C57.3622 43.7394 58.7104 45.6868 60.8825 46.9601C62.7176 48.0461 64.7399 48.4955 66.7996 48.6828C69.3462 48.9075 71.8928 48.6828 74.327 47.8589C76.4242 47.1473 78.2593 45.9864 79.57 44.1139C81.0305 42.0167 81.4799 39.6574 81.2552 37.1482" fill="#034872"></path>
</svg>
