<svg xmlns="http://www.w3.org/2000/svg" fill="none" viewBox="0 0 102 54" height="54" width="102">
<path fill="black" d="M41.8361 47.4598C41.5855 47.0178 41.2642 46.7918 40.7546 46.7918C40.219 46.7918 39.6285 47.1778 39.6285 47.7983C39.6285 48.3536 40.1469 48.6453 40.5673 48.8146L41.0494 49.0122C42.0061 49.4069 42.7207 49.962 42.7207 51.1471C42.7207 52.436 41.7732 53.3582 40.5673 53.3582C39.4772 53.3582 38.6283 52.5112 38.4849 51.373L39.3338 51.1852C39.3252 51.9658 39.915 52.5301 40.6389 52.5301C41.3628 52.5301 41.8805 51.8907 41.8805 51.1471C41.8805 50.3855 41.3 50.0561 40.7189 49.8019L40.2548 49.5952C39.4859 49.2474 38.7889 48.7864 38.7889 47.7983C38.7889 46.6509 39.7543 45.9639 40.7724 45.9639C41.5234 45.9639 42.1396 46.3499 42.5065 47.0363L41.8361 47.4598Z"></path>
<path fill="black" d="M48.9355 46.1147H50.0343L47.0051 49.3034L50.0878 53.2075H48.9533L46.4153 49.9055L46.0761 50.244V53.2075H45.2358V46.1147H46.0761V49.1909L48.9355 46.1147Z"></path>
<path fill="black" d="M53.116 53.2075H52.2764V46.1147H53.116V53.2075Z"></path>
<path fill="black" d="M55.9858 45.7764L61.0434 51.3547V46.1149H61.8836V53.4994L56.8261 47.921V53.2075H55.9858V45.7764Z"></path>
<path fill="black" d="M21.4278 18.9423H4.19309V36.8523H0V0.0205696H4.11191V17.0442H21.3754V0H25.5867V36.9349H23.5209H21.4278V18.9423Z"></path>
<path fill="black" d="M51.1999 33.0004H73.7156V36.8444H31.1237C31.0905 36.6383 31.0253 36.4221 31.0253 36.2059C31.0265 32.5006 30.9342 28.7912 31.0828 25.0915C31.1669 22.9953 31.4965 20.8782 31.9852 18.8354C32.8703 15.1356 35.8016 12.7781 39.6063 12.5877C40.9443 12.5207 42.3307 12.5762 43.6354 12.8552C47.0946 13.5951 49.1599 15.9072 50.185 19.2077C50.8863 21.4657 51.1409 23.7984 51.1489 26.1585C51.1554 28.0774 51.1483 29.9963 51.1524 31.9152C51.1532 32.2382 51.1799 32.5613 51.1999 33.0004ZM49.694 32.9316C49.694 30.2303 49.8257 27.6451 49.6557 25.0799C49.4965 22.6744 48.5545 20.5285 46.5491 19.0054C44.7577 17.6449 42.6925 17.2353 40.4976 17.2693C38.5697 17.2991 36.7634 17.7115 35.2532 18.9842C33.3338 20.6018 32.5489 22.7934 32.4275 25.205C32.3096 27.5466 32.3819 29.898 32.3765 32.2452C32.376 32.4652 32.417 32.6853 32.4412 32.9316H49.694Z"></path>
<path fill="black" d="M30.998 3.87046V0H73.6169C73.6466 0.27115 73.6921 0.493129 73.6919 0.71511C73.6873 4.48503 73.7801 8.25913 73.6271 12.0232C73.5434 14.0849 73.2046 16.1714 72.6926 18.1725C71.8891 21.3124 69.8013 23.3299 66.5977 23.9948C63.1584 24.7087 59.8845 24.4042 57.1196 21.9403C55.803 20.767 55.0163 19.2464 54.5145 17.5729C53.8156 15.2418 53.5649 12.8491 53.5653 10.4236C53.5658 8.28047 53.5654 6.13734 53.5654 3.87046H30.998ZM72.3797 3.94108H55.0365C55.0365 6.66853 54.9502 9.31117 55.0691 11.9443C55.1394 13.5004 55.7495 14.956 56.6408 16.2702C59.138 19.9521 64.8769 20.1927 67.9447 18.8077C70.1567 17.809 71.3913 15.9886 71.9544 13.7013C72.7402 10.509 72.156 7.25516 72.3797 3.94108Z"></path>
<path fill="black" d="M91.544 36.9151H88.178C88.161 36.5586 88.1299 36.2081 88.1295 35.8574C88.1256 32.6875 88.1495 29.5175 88.1086 26.3481C88.1003 25.7138 87.9627 25.031 87.6964 24.4578C84.0685 16.6474 80.4073 8.85231 76.7552 1.05309C76.6188 0.761811 76.4926 0.465582 76.3105 0.0570416H81.0371C84.2736 7.13873 87.5415 14.2897 90.8096 21.4407C90.8777 21.4321 90.9458 21.4235 91.0139 21.415C93.8696 14.2909 96.7253 7.16689 99.5904 0.0195312H101.652C101.509 0.424221 101.395 0.782381 101.256 1.13064C98.1514 8.91237 95.0363 16.6899 91.9532 24.48C91.7056 25.1057 91.5707 25.8155 91.5619 26.4886C91.5212 29.5919 91.544 32.696 91.544 35.7999C91.544 36.1535 91.544 36.5072 91.544 36.9151Z"></path>
</svg>
